# xmcd
#
# Track frame offsets: 
#        150
#        17718
#        34310
#        56192
#        73493
#        92412
#        109797
#        129450
#        145003
#        162822
#        183209
#        201782
#        225307
#        243621
#        264662
#
# Disc length: 3742 seconds
#
# Revision: 2
# Processed by: cddbd v1.5.2PL0 Copyright (c) Steve Scherf et al.
# Submitted via: ExactAudioCopy v0.90b4
#
DISCID=d10e9c0f
DTITLE=Various Artist - Nashville Outlaws A Tribute To Mötley Crüe
DYEAR=2014
DGENRE=Country
TTITLE0=Rascal Flats - Kickstart My Heart
TTITLE1=Florida Georgia Line - If I Die Tomorrow
TTITLE2=LeAnn Rimes - Smokin' In The Boys Room
TTITLE3=Justin Moore - Home Sweet Home (Ft. Vince Neil)
TTITLE4=Cassadee Pope - The Animal In Me (Ft. Robin Zander)
TTITLE5=Aaron Lewis - Afraid
TTITLE6=Big and Rich - Same Ol' Situation (S.O.S)
TTITLE7=Clare Bowen, Sam Palladio - Without You
TTITLE8=Eli Young Band - Don't Go Away Mad (Just Go Away)
TTITLE9=Lauren Jenkins - Looks That Kill
TTITLE10=The Cadillac Three - Live Wire
TTITLE11=The Mavericks - Dr. Feelgood
TTITLE12=Brantley Gilbert - Girls, Girls, Girls
TTITLE13=Gretchen Wilson - Wild Side
TTITLE14=Darius Rucker - Time For A Change
EXTD=
EXTT0=
EXTT1=
EXTT2=
EXTT3=
EXTT4=
EXTT5=
EXTT6=
EXTT7=
EXTT8=
EXTT9=
EXTT10=
EXTT11=
EXTT12=
EXTT13=
EXTT14=
PLAYORDER=
